<svg width="52" height="52" viewBox="0 0 52 52" fill="none" xmlns="http://www.w3.org/2000/svg">
<path d="M48.6042 20.6379C48.769 14.9165 44.1567 10.174 38.4348 10.174C35.1604 10.174 32.0982 11.7887 30.2062 14.4063C29.0711 13.8524 27.8382 13.5652 26.5652 13.5652C22.4709 13.5652 19.0453 16.4826 18.2575 20.3479H5.08696C2.28201 20.3479 0 22.6299 0 25.4348C0 27.6453 1.41771 29.5301 3.39127 30.2301V39C3.39127 43.0944 6.30866 46.5199 10.1739 47.3077V49.1739C10.1739 50.1104 10.9331 50.8696 11.8696 50.8696C12.8061 50.8696 13.5653 50.1105 13.5653 49.1739V47.4783H38.4349V49.1739C38.4349 50.1104 39.1941 50.8696 40.1306 50.8696C41.0671 50.8696 41.8263 50.1105 41.8263 49.1739V47.3077C45.6914 46.52 48.6089 43.0945 48.6089 39V30.2301C50.5823 29.5301 52 27.6453 52 25.4348C52 23.2226 50.5801 21.3367 48.6042 20.6379ZM26.5652 16.9566C27.7001 16.9566 28.7903 17.3484 29.718 18.0895C30.5746 18.7739 31.8463 18.4766 32.3116 17.4848C33.4286 15.1038 35.8322 13.5652 38.4348 13.5652C42.1747 13.5652 45.2175 16.6079 45.2175 20.3479H21.7699C22.4699 18.3742 24.3547 16.9566 26.5652 16.9566ZM45.2174 39C45.2174 41.805 42.9353 44.087 40.1304 44.087H11.8696C9.06466 44.087 6.78265 41.805 6.78265 39V30.5218H45.2175L45.2174 39ZM46.913 27.1304H5.08696C4.15198 27.1304 3.39127 26.3697 3.39127 25.4347C3.39127 24.4997 4.15198 23.739 5.08696 23.739C5.52957 23.739 46.8839 23.739 46.913 23.739C47.848 23.739 48.6087 24.4997 48.6087 25.4347C48.6087 26.3698 47.848 27.1304 46.913 27.1304Z" fill="white"/>
<path d="M27.6963 1.13037C24.8914 1.13037 22.6094 3.41238 22.6094 6.21733C22.6094 9.02228 24.8914 11.3043 27.6963 11.3043C30.5013 11.3043 32.7833 9.02228 32.7833 6.21733C32.7833 3.41238 30.5013 1.13037 27.6963 1.13037ZM27.6963 7.91302C26.7614 7.91302 26.0006 7.15232 26.0006 6.21733C26.0006 5.28235 26.7614 4.52164 27.6963 4.52164C28.6313 4.52164 29.392 5.28235 29.392 6.21733C29.392 7.15232 28.6313 7.91302 27.6963 7.91302Z" fill="white"/>
<path d="M18.6527 12.4348C19.5892 12.4348 20.3484 11.6756 20.3484 10.7391C20.3484 9.80264 19.5892 9.04346 18.6527 9.04346C17.7162 9.04346 16.957 9.80264 16.957 10.7391C16.957 11.6756 17.7162 12.4348 18.6527 12.4348Z" fill="white"/>
<path d="M37.8715 6.78261C38.808 6.78261 39.5672 6.02343 39.5672 5.08692C39.5672 4.15042 38.808 3.39124 37.8715 3.39124C36.935 3.39124 36.1758 4.15042 36.1758 5.08692C36.1758 6.02343 36.935 6.78261 37.8715 6.78261Z" fill="white"/>
</svg>
