<svg width="52" height="52" viewBox="0 0 52 52" fill="none" xmlns="http://www.w3.org/2000/svg">
<path d="M48.6042 20.6378C48.769 14.9164 44.1567 10.1738 38.4348 10.1738C35.1604 10.1738 32.0982 11.7886 30.2062 14.4061C29.0711 13.8523 27.8382 13.5651 26.5652 13.5651C22.4709 13.5651 19.0453 16.4825 18.2575 20.3477H5.08696C2.28201 20.3477 0 22.6298 0 25.4347C0 27.6452 1.41771 29.53 3.39127 30.23V38.9999C3.39127 43.0943 6.30866 46.5198 10.1739 47.3076V49.1738C10.1739 50.1102 10.9331 50.8695 11.8696 50.8695C12.8061 50.8695 13.5653 50.1103 13.5653 49.1738V47.4781H38.4349V49.1738C38.4349 50.1102 39.1941 50.8695 40.1306 50.8695C41.0671 50.8695 41.8263 50.1103 41.8263 49.1738V47.3076C45.6914 46.5199 48.6089 43.0944 48.6089 38.9999V30.23C50.5823 29.53 52 27.6452 52 25.4347C52 23.2225 50.5801 21.3366 48.6042 20.6378ZM26.5652 16.9565C27.7001 16.9565 28.7903 17.3483 29.718 18.0894C30.5746 18.7737 31.8463 18.4765 32.3116 17.4847C33.4286 15.1037 35.8322 13.5651 38.4348 13.5651C42.1747 13.5651 45.2175 16.6078 45.2175 20.3477H21.7699C22.4699 18.3741 24.3547 16.9565 26.5652 16.9565ZM45.2174 38.9999C45.2174 41.8049 42.9353 44.0869 40.1304 44.0869H11.8696C9.06466 44.0869 6.78265 41.8049 6.78265 38.9999V30.5217H45.2175L45.2174 38.9999ZM46.913 27.1303H5.08696C4.15198 27.1303 3.39127 26.3696 3.39127 25.4346C3.39127 24.4996 4.15198 23.7389 5.08696 23.7389C5.52957 23.7389 46.8839 23.7389 46.913 23.7389C47.848 23.7389 48.6087 24.4996 48.6087 25.4346C48.6087 26.3697 47.848 27.1303 46.913 27.1303Z" fill="#282828"/>
<path d="M27.6963 1.13037C24.8914 1.13037 22.6094 3.41238 22.6094 6.21733C22.6094 9.02228 24.8914 11.3043 27.6963 11.3043C30.5013 11.3043 32.7833 9.02228 32.7833 6.21733C32.7833 3.41238 30.5013 1.13037 27.6963 1.13037ZM27.6963 7.91302C26.7614 7.91302 26.0006 7.15232 26.0006 6.21733C26.0006 5.28235 26.7614 4.52164 27.6963 4.52164C28.6313 4.52164 29.392 5.28235 29.392 6.21733C29.392 7.15232 28.6313 7.91302 27.6963 7.91302Z" fill="#282828"/>
<path d="M18.6527 12.4348C19.5892 12.4348 20.3484 11.6756 20.3484 10.7391C20.3484 9.80264 19.5892 9.04346 18.6527 9.04346C17.7162 9.04346 16.957 9.80264 16.957 10.7391C16.957 11.6756 17.7162 12.4348 18.6527 12.4348Z" fill="#282828"/>
<path d="M37.8715 6.78273C38.808 6.78273 39.5672 6.02355 39.5672 5.08704C39.5672 4.15054 38.808 3.39136 37.8715 3.39136C36.935 3.39136 36.1758 4.15054 36.1758 5.08704C36.1758 6.02355 36.935 6.78273 37.8715 6.78273Z" fill="#282828"/>
</svg>
