<?xml version="1.0" encoding="UTF-8"?>
<svg version="1.1" xmlns="http://www.w3.org/2000/svg" width="256" height="41">
<path d="M0 0 C84.48 0 168.96 0 256 0 C256 13.53 256 27.06 256 41 C171.52 41 87.04 41 0 41 C0 27.47 0 13.94 0 0 Z " fill="#FA070C" transform="translate(0,0)"/>
<path d="M0 0 C26.4 0 52.8 0 80 0 C80 3.63 80 7.26 80 11 C73.73 11 67.46 11 61 11 C61 12.32 61 13.64 61 15 C66.61 15 72.22 15 78 15 C78 18.3 78 21.6 78 25 C72.39 25 66.78 25 61 25 C61 26.98 61 28.96 61 31 C67.6 31 74.2 31 81 31 C81 34.3 81 37.6 81 41 C54.27 41 27.54 41 0 41 C0 27.47 0 13.94 0 0 Z " fill="#F90409" transform="translate(0,0)"/>
<path d="M0 0 C35.64 0 71.28 0 108 0 C108 9.9 108 19.8 108 30 C103.38 30 98.76 30 94 30 C93.01 31.485 93.01 31.485 92 33 C90.02880859 33.34057617 90.02880859 33.34057617 87.6484375 33.29296875 C86.37226563 33.2784668 86.37226563 33.2784668 85.0703125 33.26367188 C84.18085938 33.23853516 83.29140625 33.21339844 82.375 33.1875 C81.02921875 33.16719727 81.02921875 33.16719727 79.65625 33.14648438 C77.43690211 33.11106925 75.21874812 33.06168461 73 33 C72.87625 31.906875 72.7525 30.81375 72.625 29.6875 C72.24535199 25.92618198 72.24535199 25.92618198 70 23 C69.505 24.485 69.505 24.485 69 26 C68.01 26 67.02 26 66 26 C66.99 27.670625 66.99 27.670625 68 29.375 C70 32.75 70 32.75 70 35 C66.94678976 35.29357791 64.04353857 35.43479122 61 35 C58.4375 32.625 58.4375 32.625 57 30 C57 29.34 57 28.68 57 28 C56.01 28 55.02 28 54 28 C54 30.31 54 32.62 54 35 C51.03 35 48.06 35 45 35 C45 25.76 45 16.52 45 7 C43.68 7.33 42.36 7.66 41 8 C41 9.98 41 11.96 41 14 C35.72 14 30.44 14 25 14 C25 15.32 25 16.64 25 18 C29.29 18 33.58 18 38 18 C38 20.31 38 22.62 38 25 C34.04 25 30.08 25 26 25 C26 26.32 26 27.64 26 29 C30.95 29 35.9 29 41 29 C41 31.64 41 34.28 41 37 C32.42 37 23.84 37 15 37 C14.67 31.72 14.34 26.44 14 21 C13.67 21.99 13.34 22.98 13 24 C12.34 24 11.68 24 11 24 C11.165 23.505 11.33 23.01 11.5 22.5 C12.48782062 17.56089688 12.50931025 13.47134072 10.875 8.75 C8.65222765 5.48993389 6.38841648 3.97657628 3 2 C2.01 1.34 1.02 0.68 0 0 Z " fill="#F6F4F5" transform="translate(148,0)"/>
<path d="M0 0 C0.495 1.485 0.495 1.485 1 3 C5.95 3 10.9 3 16 3 C16 3.33 16 3.66 16 4 C11.05 4 6.1 4 1 4 C1 12.91 1 21.82 1 31 C3.97 31 6.94 31 10 31 C10 28.69 10 26.38 10 24 C10.99 24 11.98 24 13 24 C13.53625 24.969375 14.0725 25.93875 14.625 26.9375 C16.61638977 30.137088 16.61638977 30.137088 19.2578125 30.62109375 C21.51585285 30.85114488 23.73083711 30.99030272 26 31 C25.34 30.071875 24.68 29.14375 24 28.1875 C22 25 22 25 22 22 C22.99 21.67 23.98 21.34 25 21 C25.33 20.34 25.66 19.68 26 19 C28 20 28 20 29 22 C29 24.31 29 26.62 29 29 C35.27 28.67 41.54 28.34 48 28 C48.33 26.35 48.66 24.7 49 23 C49.495 24.485 49.495 24.485 50 26 C54.62 26 59.24 26 64 26 C64 29.63 64 33.26 64 37 C24.4 37 -15.2 37 -56 37 C-56 33.7 -56 30.4 -56 27 C-55.2265625 26.97421875 -54.453125 26.9484375 -53.65625 26.921875 C-45.98477446 26.50412138 -39.6664918 25.6664918 -34 20 C-33.01 20 -32.02 20 -31 20 C-30.67 15.71 -30.34 11.42 -30 7 C-29.67 7 -29.34 7 -29 7 C-29 15.58 -29 24.16 -29 33 C-20.42 33 -11.84 33 -3 33 C-3 30.36 -3 27.72 -3 25 C-7.95 25 -12.9 25 -18 25 C-18 23.68 -18 22.36 -18 21 C-14.04 21 -10.08 21 -6 21 C-6 18.69 -6 16.38 -6 14 C-10.29 14 -14.58 14 -19 14 C-19 12.68 -19 11.36 -19 10 C-13.72 10 -8.44 10 -3 10 C-3 8.02 -3 6.04 -3 4 C-2.34 3.67 -1.68 3.34 -1 3 C-0.67 2.01 -0.34 1.02 0 0 Z " fill="#F6F5F5" transform="translate(192,4)"/>
<path d="M0 0 C4.125 -0.0825 8.25 -0.165 12.5 -0.25 C13.78455078 -0.28641602 15.06910156 -0.32283203 16.39257812 -0.36035156 C23.43875025 -0.42831402 28.04660426 0.14118742 34 4 C38.14598943 8.35860427 39.37731875 11.8873644 39.27734375 17.94140625 C38.80992079 21.41086966 37.25326797 23.39095288 35 26 C29.79290572 29.93188752 26.27260381 31.13196348 19.8125 31.0625 C18.18248047 31.04896484 18.18248047 31.04896484 16.51953125 31.03515625 C15.68808594 31.02355469 14.85664063 31.01195313 14 31 C14 34.3 14 37.6 14 41 C9.38 41 4.76 41 0 41 C0 27.47 0 13.94 0 0 Z " fill="#F8090D" transform="translate(122,0)"/>
<path d="M0 0 C10.89 0 21.78 0 33 0 C33 3.63 33 7.26 33 11 C26.73 11 20.46 11 14 11 C14 12.32 14 13.64 14 15 C19.61 15 25.22 15 31 15 C31 18.3 31 21.6 31 25 C25.39 25 19.78 25 14 25 C14 26.98 14 28.96 14 31 C20.6 31 27.2 31 34 31 C34 34.3 34 37.6 34 41 C22.78 41 11.56 41 0 41 C0 27.47 0 13.94 0 0 Z " fill="#F9090E" transform="translate(47,0)"/>
<path d="M0 0 C7.26 0 14.52 0 22 0 C22 13.53 22 27.06 22 41 C21.01 41 20.02 41 19 41 C18.505 36.05 18.505 36.05 18 31 C12.06 30.67 6.12 30.34 0 30 C0 20.1 0 10.2 0 0 Z " fill="#F7F3F3" transform="translate(100,0)"/>
<path d="M0 0 C8.25 0 16.5 0 25 0 C25 2.64 25 5.28 25 8 C20.05 8 15.1 8 10 8 C10 9.32 10 10.64 10 12 C14.29 12 18.58 12 23 12 C23 14.31 23 16.62 23 19 C19.04 19 15.08 19 11 19 C11 20.32 11 21.64 11 23 C15.95 23 20.9 23 26 23 C26 25.64 26 28.28 26 31 C17.42 31 8.84 31 0 31 C0 20.77 0 10.54 0 0 Z " fill="#0A0B0A" transform="translate(163,6)"/>
<path d="M0 0 C2.84625 -0.0825 5.6925 -0.165 8.625 -0.25 C9.51010254 -0.28641602 10.39520508 -0.32283203 11.30712891 -0.36035156 C16.68827905 -0.43544301 19.75397618 0.38351283 24 4 C25.58657097 7.17314193 25.41998172 10.54375701 25 14 C23.4375 16.25 23.4375 16.25 22 18 C22.10417827 20.00339546 22.10417827 20.00339546 23 22 C23.350625 22.9075 23.70125 23.815 24.0625 24.75 C24.5265625 25.86375 24.5265625 25.86375 25 27 C21.94678976 27.29357791 19.04353857 27.43479122 16 27 C13.4375 24.625 13.4375 24.625 12 22 C12 21.34 12 20.68 12 20 C11.01 20 10.02 20 9 20 C9 22.31 9 24.62 9 27 C6.03 27 3.06 27 0 27 C0 18.09 0 9.18 0 0 Z " fill="#060606" transform="translate(193,8)"/>
<path d="M0 0 C1.98 0 3.96 0 6 0 C6 13.53 6 27.06 6 41 C4.35 41 2.7 41 1 41 C1 37.7 1 34.4 1 31 C-5.6 31 -12.2 31 -19 31 C-19 29.02 -19 27.04 -19 25 C-13.39 25 -7.78 25 -2 25 C-2 21.7 -2 18.4 -2 15 C-7.61 15 -13.22 15 -19 15 C-19 13.68 -19 12.36 -19 11 C-12.73 11 -6.46 11 0 11 C0 7.37 0 3.74 0 0 Z " fill="#F9F1F0" transform="translate(80,0)"/>
<path d="M0 0 C2.31 0 4.62 0 7 0 C7 13.53 7 27.06 7 41 C4.69 41 2.38 41 0 41 C0 27.47 0 13.94 0 0 Z " fill="#FAEEEB" transform="translate(40,0)"/>
<path d="M0 0 C0.33 0.99 0.66 1.98 1 3 C5.95 3 10.9 3 16 3 C16 3.33 16 3.66 16 4 C11.05 4 6.1 4 1 4 C1 12.91 1 21.82 1 31 C0.34 31.33 -0.32 31.66 -1 32 C-1.33 30.02 -1.66 28.04 -2 26 C-7.28 25.67 -12.56 25.34 -18 25 C-18 23.68 -18 22.36 -18 21 C-14.04 21 -10.08 21 -6 21 C-6 18.69 -6 16.38 -6 14 C-10.29 14 -14.58 14 -19 14 C-19 12.68 -19 11.36 -19 10 C-13.72 10 -8.44 10 -3 10 C-3 8.02 -3 6.04 -3 4 C-2.34 3.67 -1.68 3.34 -1 3 C-0.67 2.01 -0.34 1.02 0 0 Z " fill="#F2F1F2" transform="translate(192,4)"/>
<path d="M0 0 C5.94 0 11.88 0 18 0 C17.09874755 4.50626224 16.68296408 5.9103816 14.0625 9.3125 C13.53785156 10.00988281 13.01320312 10.70726562 12.47265625 11.42578125 C11.74369141 12.20501953 11.74369141 12.20501953 11 13 C10.34 13 9.68 13 9 13 C9 13.66 9 14.32 9 15 C11.97 15 14.94 15 18 15 C18 16.65 18 18.3 18 20 C12.06 20 6.12 20 0 20 C1.125 12.125 1.125 12.125 4.0625 9.0625 C4.61035156 8.47597656 5.15820312 7.88945312 5.72265625 7.28515625 C6.14417969 6.86105469 6.56570312 6.43695312 7 6 C4.69 5.67 2.38 5.34 0 5 C0 3.35 0 1.7 0 0 Z " fill="#060606" transform="translate(222,12)"/>
<path d="M0 0 C4.29 0 8.58 0 13 0 C13 4.95 13 9.9 13 15 C8.71 15 4.42 15 0 15 C0 10.05 0 5.1 0 0 Z " fill="#FAE8E8" transform="translate(14,26)"/>
<path d="M0 0 C4.29 0 8.58 0 13 0 C13 4.95 13 9.9 13 15 C8.71 15 4.42 15 0 15 C0 10.05 0 5.1 0 0 Z " fill="#F7F5F6" transform="translate(14,0)"/>
<path d="M0 0 C4.29 0 8.58 0 13 0 C13 4.95 13 9.9 13 15 C8.71 15 4.42 15 0 15 C0.98425899 10.07870506 1.8162018 8.59461087 5 5 C3.35 4.67 1.7 4.34 0 4 C0 2.68 0 1.36 0 0 Z " fill="#171717" transform="translate(243,15)"/>
<path d="M0 0 C1.65 0 3.3 0 5 0 C5.04254356 1.99954746 5.04080783 4.00041636 5 6 C4.67 6.33 4.34 6.66 4 7 C3.84011509 9.51880517 3.74065775 12.01342266 3.68359375 14.53515625 C3.66281265 15.28840683 3.64203156 16.04165741 3.62062073 16.81773376 C3.55504575 19.2325599 3.49620379 21.64749798 3.4375 24.0625 C3.3943223 25.69597529 3.35070827 27.3294391 3.30664062 28.96289062 C3.19935638 32.97514464 3.09811179 36.98751164 3 41 C2.01 41 1.02 41 0 41 C0 27.47 0 13.94 0 0 Z " fill="#FED8DD" transform="translate(40,0)"/>
<path d="M0 0 C6.27 0 12.54 0 19 0 C19 0.33 19 0.66 19 1 C13.06 1 7.12 1 1 1 C1 2.65 1 4.3 1 6 C3.64 6 6.28 6 9 6 C7.44906027 8.71414453 5.90445711 11.1124034 3.875 13.5 C1.59224187 16.16915017 1.59224187 16.16915017 1 21 C6.94 21 12.88 21 19 21 C19 21.33 19 21.66 19 22 C12.73 22 6.46 22 0 22 C-0.33 19.69 -0.66 17.38 -1 15 C-1.66 14.01 -2.32 13.02 -3 12 C-3.33 12.99 -3.66 13.98 -4 15 C-4.66 14.67 -5.32 14.34 -6 14 C-5.34 13.01 -4.68 12.02 -4 11 C-3.60986284 9.0103005 -3.26797351 7.00980131 -3 5 C-2.34 5.33 -1.68 5.66 -1 6 C-0.67 4.02 -0.34 2.04 0 0 Z " fill="#CBCCCB" transform="translate(221,11)"/>
<path d="M0 0 C0.99 0.66 1.98 1.32 3 2 C5.32387947 2.39387788 7.65793749 2.73486085 10 3 C9.49339844 3.68835938 9.49339844 3.68835938 8.9765625 4.390625 C6.70533547 7.51520323 4.67922798 10.51237265 3 14 C2.34 14.66 1.68 15.32 1 16 C1 14.35 1 12.7 1 11 C-1.97 11 -4.94 11 -8 11 C-8 10.34 -8 9.68 -8 9 C-7.34 9 -6.68 9 -6 9 C-5.7525 8.443125 -5.505 7.88625 -5.25 7.3125 C-3.78393985 4.60028873 -1.97010529 2.36412635 0 0 Z " fill="#E6E6E6" transform="translate(239,16)"/>
<path d="M0 0 C5.28 0 10.56 0 16 0 C16 2.97 16 5.94 16 9 C10.39 9 4.78 9 -1 9 C-1 10.98 -1 12.96 -1 15 C5.6 15 12.2 15 19 15 C19 18.3 19 21.6 19 25 C18.34 25 17.68 25 17 25 C17 22.36 17 19.72 17 17 C15.71222656 17.01160156 14.42445312 17.02320312 13.09765625 17.03515625 C11.41927228 17.0445327 9.74088674 17.05363305 8.0625 17.0625 C6.78729492 17.07506836 6.78729492 17.07506836 5.48632812 17.08789062 C4.67744141 17.09111328 3.86855469 17.09433594 3.03515625 17.09765625 C2.2862915 17.10289307 1.53742676 17.10812988 0.76586914 17.11352539 C-1 17 -1 17 -2 16 C-2 13.36 -2 10.72 -2 8 C3.61 8 9.22 8 15 8 C15 5.69 15 3.38 15 1 C10.05 1 5.1 1 0 1 C0 0.67 0 0.34 0 0 Z " fill="#DD1015" transform="translate(62,16)"/>
<path d="M0 0 C6.8359375 -0.1953125 6.8359375 -0.1953125 9 0 C11 2 11 2 11.25 4.5 C11 7 11 7 9 9 C5.98173347 9.27240673 3.03629378 9.08675125 0 9 C0 6.03 0 3.06 0 0 Z " fill="#FCDFE1" transform="translate(136,11)"/>
<path d="M0 0 C5.61 0 11.22 0 17 0 C15 2 15 2 11.9609375 2.1953125 C10.77757813 2.17210937 9.59421875 2.14890625 8.375 2.125 C7.18648438 2.10695313 5.99796875 2.08890625 4.7734375 2.0703125 C3.85820313 2.04710937 2.94296875 2.02390625 2 2 C2 2.99 2 3.98 2 5 C8.6 4.67 15.2 4.34 22 4 C22 7.96 22 11.92 22 16 C21.34 16 20.68 16 20 16 C20 12.7 20 9.4 20 6 C13.4 6 6.8 6 0 6 C0 4.02 0 2.04 0 0 Z " fill="#FEBDC1" transform="translate(61,25)"/>
<path d="M0 0 C0.33 0.66 0.66 1.32 1 2 C0.0625 4.125 0.0625 4.125 -1 6 C-2.65 6 -4.3 6 -6 6 C-6.33 6.66 -6.66 7.32 -7 8 C-9.88211302 8.96070434 -11.69850044 9.10581883 -14.6875 9.0625 C-15.89986328 9.04896484 -15.89986328 9.04896484 -17.13671875 9.03515625 C-18.05904297 9.01775391 -18.05904297 9.01775391 -19 9 C-19 11.64 -19 14.28 -19 17 C-19.99 17 -20.98 17 -22 17 C-22 13.7 -22 10.4 -22 7 C-21.2265625 6.97421875 -20.453125 6.9484375 -19.65625 6.921875 C-11.98477446 6.50412138 -5.6664918 5.6664918 0 0 Z " fill="#FDD6D9" transform="translate(158,24)"/>
<path d="M0 0 C0.33 0 0.66 0 1 0 C1 13.53 1 27.06 1 41 C0.01 41 -0.98 41 -2 41 C-2.03738281 40.30132812 -2.07476562 39.60265625 -2.11328125 38.8828125 C-2.17902344 37.97273438 -2.24476562 37.06265625 -2.3125 36.125 C-2.37050781 35.22007813 -2.42851563 34.31515625 -2.48828125 33.3828125 C-2.7882039 30.63778399 -2.7882039 30.63778399 -6 29 C-4.35 28.67 -2.7 28.34 -1 28 C-0.67 18.76 -0.34 9.52 0 0 Z " fill="#FEEAF1" transform="translate(121,0)"/>
<path d="M0 0 C0.33 0 0.66 0 1 0 C1 3.96 1 7.92 1 12 C3.97 12 6.94 12 10 12 C10.33 8.04 10.66 4.08 11 0 C11.66 0 12.32 0 13 0 C13 4.95 13 9.9 13 15 C8.71 15 4.42 15 0 15 C0 10.05 0 5.1 0 0 Z " fill="#FDC1C1" transform="translate(14,0)"/>
<path d="M0 0 C4.29 0 8.58 0 13 0 C13 3.63 13 7.26 13 11 C11.02 11 9.04 11 7 11 C7.28875 10.443125 7.5775 9.88625 7.875 9.3125 C9.0413253 6.91505355 10.0339881 4.48403061 11 2 C7.7 1.67 4.4 1.34 1 1 C1 1.66 1 2.32 1 3 C2.98 3 4.96 3 7 3 C6.6875 4.875 6.6875 4.875 6 7 C5.01 7.66 4.02 8.32 3 9 C3.66 7.68 4.32 6.36 5 5 C3.35 4.67 1.7 4.34 0 4 C0 2.68 0 1.36 0 0 Z " fill="#282728" transform="translate(243,15)"/>
<path d="M0 0 C2.97922593 -0.02683987 5.95821295 -0.04676037 8.9375 -0.0625 C9.78763672 -0.07087891 10.63777344 -0.07925781 11.51367188 -0.08789062 C12.32255859 -0.09111328 13.13144531 -0.09433594 13.96484375 -0.09765625 C14.7137085 -0.10289307 15.46257324 -0.10812988 16.23413086 -0.11352539 C18 0 18 0 19 1 C19.07205511 2.68608966 19.08386068 4.37500659 19.0625 6.0625 C19.05347656 6.98160156 19.04445313 7.90070312 19.03515625 8.84765625 C19.02355469 9.55792969 19.01195313 10.26820312 19 11 C18.34 11 17.68 11 17 11 C17 8.03 17 5.06 17 2 C15.94039062 2.08378906 14.88078125 2.16757812 13.7890625 2.25390625 C12.40106375 2.35706832 11.01304165 2.45991663 9.625 2.5625 C8.92632812 2.61857422 8.22765625 2.67464844 7.5078125 2.73242188 C2.2265625 3.11328125 2.2265625 3.11328125 0 2 C0 1.34 0 0.68 0 0 Z " fill="#EA3C42" transform="translate(100,30)"/>
<path d="M0 0 C4.95 0 9.9 0 15 0 C13.02 0.99 13.02 0.99 11 2 C11.99 2.33 12.98 2.66 14 3 C14 5.64 14 8.28 14 11 C13.67 11 13.34 11 13 11 C13 8.69 13 6.38 13 4 C8.71 4 4.42 4 0 4 C0 2.68 0 1.36 0 0 Z " fill="#B8B9B9" transform="translate(173,14)"/>
<path d="M0 0 C3.63 0 7.26 0 11 0 C9.74194623 4.50802601 8.09592835 7.4912812 5 11 C3.8125 9.3125 3.8125 9.3125 3 7 C4.375 4.25 4.375 4.25 6 2 C4.02 2 2.04 2 0 2 C0 1.34 0 0.68 0 0 Z " fill="#080808" transform="translate(244,16)"/>
<path d="M0 0 C3.83307169 -0.11719175 7.66567608 -0.18758077 11.5 -0.25 C12.57765625 -0.28351562 13.6553125 -0.31703125 14.765625 -0.3515625 C21.69580492 -0.43607689 26.07635985 0.34804709 32 4 C30.15869141 4.5871582 30.15869141 4.5871582 28 5 C27.16210938 4.53980469 26.32421875 4.07960938 25.4609375 3.60546875 C20.55791132 1.33104012 15.96943195 1.43318072 10.625 1.3125 C9.60277344 1.27833984 8.58054688 1.24417969 7.52734375 1.20898438 C5.01833886 1.12691412 2.50966535 1.05763124 0 1 C0 0.67 0 0.34 0 0 Z " fill="#FF161D" transform="translate(124,0)"/>
<path d="M0 0 C1.98 0 3.96 0 6 0 C6.38218767 1.65614657 6.71395102 3.32457024 7 5 C6 6 6 6 2.9375 6.0625 C1.4834375 6.0315625 1.4834375 6.0315625 0 6 C0 4.02 0 2.04 0 0 Z " fill="#E7E7E5" transform="translate(202,15)"/>
<path d="M0 0 C0.99 0 1.98 0 3 0 C3 3.3 3 6.6 3 10 C2.01 10 1.02 10 0 10 C0 6.7 0 3.4 0 0 Z " fill="#FBCCD1" transform="translate(80,0)"/>
<path d="M0 0 C0 2.31 0 4.62 0 7 C-1.98 7 -3.96 7 -6 7 C-2.86206897 0 -2.86206897 0 0 0 Z " fill="#E3E3E3" transform="translate(256,19)"/>
<path d="M0 0 C2.64 0 5.28 0 8 0 C8.33 0.66 8.66 1.32 9 2 C8.67 2.66 8.34 3.32 8 4 C7.34 4 6.68 4 6 4 C6 3.34 6 2.68 6 2 C4.02 2 2.04 2 0 2 C0 1.34 0 0.68 0 0 Z " fill="#020202" transform="translate(244,16)"/>
<path d="M0 0 C0.66 0.33 1.32 0.66 2 1 C1.67 2.32 1.34 3.64 1 5 C0.67 4.67 0.34 4.34 0 4 C-1.51469448 3.76807135 -3.03754562 3.58784762 -4.5625 3.4375 C-5.38878906 3.35371094 -6.21507812 3.26992187 -7.06640625 3.18359375 C-7.70449219 3.12300781 -8.34257812 3.06242188 -9 3 C-9 2.67 -9 2.34 -9 2 C-6.94921875 1.77213542 -4.8984375 1.54427083 -2.84765625 1.31640625 C-0.98859771 1.18113386 -0.98859771 1.18113386 0 0 Z " fill="#EB282D" transform="translate(145,8)"/>
<path d="M0 0 C6.52307692 0.61538462 6.52307692 0.61538462 8.9375 2.5625 C9.288125 3.036875 9.63875 3.51125 10 4 C6.44219804 3.39009109 3.3171411 2.4216319 0 1 C0 0.67 0 0.34 0 0 Z " fill="#DF1819" transform="translate(146,1)"/>
</svg>
