<svg width="136" height="57" viewBox="0 0 136 57" fill="none" xmlns="http://www.w3.org/2000/svg">
<rect x="39.9305" y="16.2093" width="95.6744" height="18.9767" rx="0.395349" fill="#F4B300" stroke="#262626" stroke-width="0.790697"/>
<g clip-path="url(#clip0_3426_2731)">
<path d="M27.892 45.2945L27.8833 45.2887L27.8744 45.2834C26.4151 44.4157 23.0839 42.3965 20.1205 39.6972C17.1377 36.9801 14.6258 33.6619 14.6258 30.2046V15.9619C14.7061 15.9113 14.8318 15.8453 15.0067 15.7651C15.3802 15.594 15.9233 15.3826 16.5877 15.1446C17.9133 14.6695 19.6855 14.1009 21.4632 13.5527C23.2397 13.005 25.0167 12.4793 26.3499 12.0904C27.0164 11.896 27.5718 11.7359 27.9605 11.6244C28.1548 11.5686 28.3075 11.525 28.4115 11.4954L28.463 11.4807L28.5145 11.4954C28.6185 11.525 28.7712 11.5686 28.9656 11.6244C29.3543 11.7359 29.9097 11.896 30.5762 12.0904C31.9094 12.4793 33.6864 13.005 35.4628 13.5527C37.2405 14.1009 39.0127 14.6695 40.3384 15.1446C41.0027 15.3826 41.5459 15.594 41.9193 15.7651C42.0943 15.8453 42.2199 15.9113 42.3002 15.9619V30.2046C42.3002 33.6635 39.806 37.0019 36.8342 39.7278C33.8812 42.4363 30.5504 44.4549 29.0625 45.2772L29.0479 45.2852L29.0341 45.2945C28.8651 45.4074 28.6663 45.4677 28.463 45.4677C28.2597 45.4677 28.061 45.4074 27.892 45.2945ZM36.1751 24.3167L36.195 24.2968L36.2119 24.2744C36.4974 23.8937 36.636 23.4228 36.6022 22.9482C36.5685 22.4735 36.3647 22.027 36.0282 21.6905C35.6918 21.3541 35.2452 21.1503 34.7706 21.1165C34.296 21.0828 33.8251 21.2214 33.4444 21.5069L33.4219 21.5238L33.4021 21.5436L26.0909 28.8548L23.5292 26.293C23.3306 26.0799 23.0872 25.9132 22.8166 25.805C22.5434 25.6959 22.2493 25.649 21.9557 25.668C21.6621 25.6869 21.3765 25.7712 21.1196 25.9145C20.8627 26.0579 20.6411 26.2568 20.4708 26.4967L20.46 26.5121L20.4506 26.5284C20.2109 26.945 20.1188 27.4304 20.1892 27.9059C20.2593 28.3792 20.4865 28.8153 20.834 29.144L24.6988 33.0087C24.8754 33.1994 25.0893 33.3517 25.3272 33.4564L25.4863 33.0944L25.3272 33.4564C25.5679 33.5622 25.828 33.6168 26.0909 33.6168C26.3539 33.6168 26.6139 33.5622 26.8547 33.4564L26.6955 33.0944L26.8547 33.4564C27.0926 33.3517 27.3065 33.1994 27.4831 33.0087L36.1751 24.3167Z" fill="#F4B300" stroke="#262626" stroke-width="0.790697"/>
<rect x="56.9297" y="18.6118" width="102.912" height="38.3184" fill="#F4B300"/>
</g>
<path d="M66.315 28.814H64.7336V19.8198H66.315V28.814ZM69.1195 21.1047H61.9538V19.8198H69.1195V21.1047ZM71.2445 28.814H69.7125V22.1301H71.1703L71.2445 23.4397V28.814ZM73.2583 23.5385C73.1635 23.5221 73.0626 23.5097 72.9556 23.5015C72.8526 23.4932 72.7497 23.4891 72.6467 23.4891C72.309 23.4891 72.0269 23.5509 71.8004 23.6744C71.578 23.7939 71.4092 23.9668 71.2939 24.1933C71.1786 24.4157 71.1106 24.6793 71.09 24.984L70.7379 24.9902C70.7379 24.426 70.812 23.9195 70.9603 23.4706C71.1086 23.0217 71.3309 22.6655 71.6274 22.4019C71.924 22.1383 72.2946 22.0066 72.7394 22.0066C72.8259 22.0066 72.9226 22.0148 73.0297 22.0313C73.1368 22.0477 73.2171 22.0663 73.2706 22.0869L73.2583 23.5385ZM78.2001 22.1301H79.7321V28.814H78.2866L78.2001 27.2326V22.1301ZM78.9229 25.8241C78.9229 26.4254 78.8343 26.9608 78.6572 27.4302C78.4802 27.8956 78.2042 28.2642 77.8295 28.536C77.4547 28.8037 76.9688 28.9375 76.3716 28.9375C75.7127 28.9375 75.1794 28.744 74.7717 28.3568C74.364 27.9697 74.1602 27.3335 74.1602 26.448V22.1301H75.6921V26.4604C75.6921 26.7693 75.7395 27.0143 75.8342 27.1955C75.933 27.3726 76.0628 27.4982 76.2234 27.5723C76.384 27.6465 76.5611 27.6835 76.7546 27.6835C77.1706 27.6835 77.498 27.6032 77.7368 27.4426C77.9798 27.2779 78.1528 27.0555 78.2557 26.7754C78.3587 26.4954 78.4102 26.1824 78.4102 25.8365L78.9229 25.8241ZM84.9705 26.9917C84.9705 26.8516 84.9334 26.724 84.8593 26.6087C84.7893 26.4934 84.6513 26.3863 84.4454 26.2874C84.2395 26.1886 83.9368 26.098 83.5373 26.0156C83.0637 25.9168 82.6457 25.785 82.2833 25.6203C81.925 25.4556 81.645 25.2435 81.4432 24.984C81.2455 24.7246 81.1467 24.4075 81.1467 24.0327C81.1467 23.6703 81.2497 23.3367 81.4556 23.032C81.6656 22.7231 81.9642 22.476 82.3513 22.2907C82.7425 22.1013 83.2038 22.0066 83.735 22.0066C84.2951 22.0066 84.7769 22.1013 85.1805 22.2907C85.5841 22.476 85.8929 22.7293 86.1071 23.0505C86.3254 23.3676 86.4345 23.728 86.4345 24.1316H84.9025C84.9025 23.868 84.8037 23.6374 84.606 23.4397C84.4125 23.2379 84.1201 23.137 83.7288 23.137C83.4859 23.137 83.282 23.1761 83.1173 23.2544C82.9567 23.3326 82.8352 23.4335 82.7528 23.5571C82.6746 23.6806 82.6354 23.8165 82.6354 23.9648C82.6354 24.1089 82.6746 24.2345 82.7528 24.3416C82.8352 24.4487 82.9731 24.5434 83.1667 24.6257C83.3644 24.7081 83.6403 24.7863 83.9945 24.8605C84.5051 24.9676 84.9458 25.1035 85.3164 25.2682C85.687 25.4288 85.9712 25.6429 86.1689 25.9106C86.3707 26.1742 86.4716 26.5098 86.4716 26.9175C86.4716 27.3088 86.3583 27.6567 86.1318 27.9615C85.9094 28.2662 85.5944 28.5051 85.1867 28.6781C84.7831 28.851 84.3054 28.9375 83.7535 28.9375C83.1399 28.9375 82.6231 28.8284 82.203 28.6101C81.783 28.3918 81.4638 28.1139 81.2455 27.7762C81.0314 27.4344 80.9243 27.0802 80.9243 26.7137H82.4007C82.4172 26.9772 82.4913 27.1893 82.6231 27.3499C82.759 27.5105 82.9278 27.6279 83.1296 27.702C83.3355 27.7721 83.5497 27.8071 83.7721 27.8071C84.0356 27.8071 84.2539 27.7721 84.4269 27.702C84.6039 27.632 84.7378 27.5373 84.8284 27.4179C84.9231 27.2943 84.9705 27.1523 84.9705 26.9917ZM90.8575 23.2606H87.0646V22.1301H90.8575V23.2606ZM89.6714 20.4931V26.9299C89.6714 27.1358 89.7002 27.2923 89.7579 27.3994C89.8155 27.5023 89.8979 27.5723 90.005 27.6094C90.1121 27.6465 90.2356 27.665 90.3756 27.665C90.4786 27.665 90.5774 27.6588 90.6721 27.6465C90.7669 27.6341 90.843 27.6217 90.9007 27.6094V28.7893C90.7772 28.8304 90.633 28.8654 90.4683 28.8943C90.3077 28.9231 90.1182 28.9375 89.9 28.9375C89.5582 28.9375 89.2534 28.8757 88.9857 28.7522C88.7222 28.6286 88.5142 28.4289 88.3618 28.153C88.2136 27.873 88.1394 27.5023 88.1394 27.0411V20.4931H89.6714ZM99.9937 26.4913C99.9937 26.2483 99.9422 26.0424 99.8393 25.8736C99.7404 25.7006 99.5531 25.542 99.2772 25.3979C99.0012 25.2496 98.6038 25.0952 98.0849 24.9346C97.6608 24.8069 97.2675 24.6607 96.9051 24.496C96.5468 24.3313 96.2338 24.1418 95.9661 23.9277C95.6984 23.7094 95.4884 23.4582 95.336 23.1741C95.1878 22.8858 95.1136 22.5543 95.1136 22.1795C95.1136 21.6895 95.2495 21.2591 95.5213 20.8885C95.7931 20.5137 96.17 20.2213 96.6518 20.0113C97.1336 19.8012 97.6916 19.6962 98.3258 19.6962C99.0012 19.6962 99.5819 19.8198 100.068 20.0669C100.554 20.3098 100.926 20.6393 101.186 21.0552C101.45 21.4712 101.581 21.9345 101.581 22.4451H99.9875C99.9875 22.161 99.9258 21.9077 99.8022 21.6853C99.6828 21.4588 99.4995 21.2838 99.2524 21.1603C99.0053 21.0326 98.6903 20.9688 98.3073 20.9688C97.949 20.9688 97.6505 21.0223 97.4116 21.1294C97.1727 21.2364 96.9957 21.3806 96.8803 21.5618C96.765 21.743 96.7074 21.9489 96.7074 22.1795C96.7074 22.3978 96.7774 22.5913 96.9174 22.7602C97.0574 22.929 97.2695 23.0835 97.5537 23.2235C97.8378 23.3594 98.192 23.4912 98.6162 23.6188C99.2833 23.8124 99.8372 24.0389 100.278 24.2983C100.719 24.5578 101.046 24.8646 101.26 25.2188C101.478 25.5729 101.587 25.993 101.587 26.4789C101.587 26.9855 101.456 27.4241 101.192 27.7947C100.929 28.1612 100.556 28.4433 100.074 28.641C99.5922 28.8387 99.0259 28.9375 98.3753 28.9375C97.9428 28.9375 97.5166 28.8799 97.0966 28.7645C96.6765 28.6451 96.2956 28.468 95.9537 28.2333C95.6161 27.9944 95.3443 27.6959 95.1383 27.3376C94.9366 26.9793 94.8357 26.5572 94.8357 26.0712H96.4294C96.4294 26.3595 96.4788 26.6045 96.5777 26.8063C96.6765 27.0081 96.8145 27.1749 96.9915 27.3067C97.1686 27.4344 97.3745 27.527 97.6093 27.5847C97.8481 27.6423 98.1035 27.6712 98.3753 27.6712C98.7335 27.6712 99.0321 27.6217 99.271 27.5229C99.5098 27.4199 99.689 27.2799 99.8084 27.1028C99.9319 26.9258 99.9937 26.7219 99.9937 26.4913ZM105.77 28.9375C105.106 28.9375 104.534 28.7954 104.052 28.5113C103.57 28.223 103.2 27.8359 102.94 27.3499C102.681 26.8599 102.551 26.3121 102.551 25.7068V25.4535C102.551 24.7575 102.683 24.1521 102.946 23.6374C103.21 23.1185 103.57 22.7169 104.028 22.4328C104.489 22.1486 105.01 22.0066 105.59 22.0066C106.233 22.0066 106.766 22.1466 107.19 22.4266C107.614 22.7025 107.932 23.0876 108.142 23.5818C108.352 24.0718 108.457 24.6402 108.457 25.2867V25.9477H103.286V24.8419H106.943V24.7246C106.935 24.4651 106.886 24.2222 106.795 23.9957C106.704 23.7692 106.56 23.5859 106.363 23.4459C106.169 23.3059 105.91 23.2358 105.584 23.2358C105.259 23.2358 104.985 23.3285 104.763 23.5138C104.54 23.695 104.371 23.9524 104.256 24.286C104.141 24.6154 104.083 25.0046 104.083 25.4535V25.7068C104.083 26.0856 104.153 26.4254 104.293 26.726C104.433 27.0267 104.637 27.2655 104.905 27.4426C105.172 27.6156 105.492 27.702 105.862 27.702C106.22 27.702 106.538 27.632 106.813 27.492C107.094 27.352 107.334 27.1502 107.536 26.8866L108.339 27.6897C108.129 28.0068 107.812 28.2951 107.388 28.5545C106.968 28.8098 106.428 28.9375 105.77 28.9375ZM113.355 24.2983C113.355 23.9524 113.258 23.6765 113.065 23.4706C112.875 23.2647 112.587 23.1617 112.2 23.1617C111.969 23.1617 111.768 23.2029 111.595 23.2853C111.422 23.3635 111.288 23.4706 111.193 23.6065C111.098 23.7424 111.051 23.8968 111.051 24.0698H109.519C109.519 23.7115 109.632 23.3759 109.859 23.0629C110.085 22.7458 110.405 22.4904 110.816 22.2969C111.232 22.1033 111.722 22.0066 112.287 22.0066C112.789 22.0066 113.236 22.091 113.627 22.2598C114.018 22.4287 114.325 22.684 114.547 23.0258C114.774 23.3676 114.887 23.7959 114.887 24.3107V27.2573C114.887 27.5703 114.91 27.8462 114.955 28.085C115 28.3239 115.064 28.5319 115.147 28.709V28.814H113.578C113.508 28.6534 113.452 28.4454 113.411 28.1901C113.374 27.9347 113.355 27.6856 113.355 27.4426V24.2983ZM113.59 25.6882H112.54C111.996 25.6882 111.586 25.7891 111.311 25.9909C111.039 26.1886 110.903 26.4583 110.903 26.8002C110.903 27.0637 110.993 27.284 111.175 27.4611C111.356 27.6341 111.611 27.7206 111.941 27.7206C112.241 27.7206 112.503 27.6609 112.725 27.5414C112.952 27.4179 113.129 27.2676 113.256 27.0905C113.384 26.9093 113.45 26.7404 113.454 26.584L113.942 27.2696C113.893 27.4385 113.808 27.6197 113.689 27.8132C113.574 28.0027 113.419 28.1839 113.226 28.3568C113.036 28.5257 112.81 28.6657 112.546 28.7769C112.287 28.884 111.984 28.9375 111.638 28.9375C111.201 28.9375 110.812 28.851 110.47 28.6781C110.129 28.5051 109.859 28.2683 109.661 27.9677C109.468 27.6629 109.371 27.3211 109.371 26.9422C109.371 26.2339 109.637 25.6903 110.168 25.3114C110.699 24.9325 111.453 24.7431 112.429 24.7431H113.578L113.59 25.6882ZM118.069 28.814H116.537V19.3256H118.069V28.814Z" fill="#262626"/>
<defs>
<clipPath id="clip0_3426_2731">
<rect width="56.9302" height="56.9302" fill="white"/>
</clipPath>
</defs>
</svg>
